<svg width="96" height="123" viewBox="0 0 96 123" fill="none" xmlns="http://www.w3.org/2000/svg">
<path d="M52.849 47.5259C52.849 47.5259 30.7178 81.7257 24.9332 128.277L6.92188 126.579C6.92188 126.579 22.586 72.1041 47.3141 44.6044C53.0488 43.5474 52.8573 47.5259 52.8573 47.5259H52.849Z" fill="#FEC035"/>
<path d="M47.7858 46.1531C53.4789 37.8299 54.6524 26.7601 49.8749 17.072C45.1058 7.38385 35.6174 1.55765 25.5547 1L28.8007 7.59193L34.9848 9.91409L30.9314 11.9116L33.7863 17.7212L39.9704 20.0434L35.917 22.0409L47.7941 46.1531H47.7858Z" fill="#108C63"/>
<path d="M25.5547 1C25.5547 1 54.486 7.47541 47.6943 45.97" stroke="black" stroke-width="0.307957" stroke-miterlimit="10" stroke-linecap="round"/>
<path d="M52.2621 35.5831L48.5333 39.42L41.9414 34.293" stroke="black" stroke-width="0.307957" stroke-miterlimit="10" stroke-linecap="round"/>
<path d="M52.1341 23.4395L48.2805 28.2586L37.4688 24.4549" stroke="black" stroke-width="0.307957" stroke-miterlimit="10" stroke-linecap="round"/>
<path d="M45.224 10.2812L43.7424 14.9505L32.0234 14.1432" stroke="black" stroke-width="0.307957" stroke-miterlimit="10" stroke-linecap="round"/>
<path d="M48.2411 46.552C39.9762 40.7757 28.9231 39.494 19.185 44.1716C9.44689 48.8492 3.52913 58.271 2.86328 68.3337L9.48851 65.1542L11.8689 58.9951L13.8249 63.0734L19.6594 60.2769L22.0398 54.1177L23.9958 58.1961L48.2328 46.5686L48.2411 46.552Z" fill="#108C63"/>
<path d="M2.85547 68.334C2.85547 68.334 9.62219 39.4693 48.0502 46.6438" stroke="black" stroke-width="0.307957" stroke-miterlimit="10" stroke-linecap="round"/>
<path d="M37.7108 41.9668L41.5062 45.7289L36.3125 52.2709" stroke="black" stroke-width="0.307957" stroke-miterlimit="10" stroke-linecap="round"/>
<path d="M25.5703 41.9746L30.3478 45.8782L26.4276 56.6483" stroke="black" stroke-width="0.307957" stroke-miterlimit="10" stroke-linecap="round"/>
<path d="M12.3359 48.75L16.9886 50.2815L16.073 61.9921" stroke="black" stroke-width="0.307957" stroke-miterlimit="10" stroke-linecap="round"/>
<path d="M48.0859 46.5021C56.8169 41.45 67.9367 41.1254 77.2419 46.6187C86.5472 52.1119 91.6327 62.0082 91.4329 72.0875L85.099 68.3504L83.2512 62.0082L80.9541 65.9034L75.3776 62.6157L73.5298 56.2735L71.2326 60.1687L48.0859 46.5021Z" fill="#108C63"/>
<path d="M91.4334 72.0961C91.4334 72.0961 87.1636 42.757 48.2695 46.6106" stroke="black" stroke-width="0.307957" stroke-miterlimit="10" stroke-linecap="round"/>
<path d="M58.9627 42.8398L54.8594 46.2607L59.4704 53.2271" stroke="black" stroke-width="0.307957" stroke-miterlimit="10" stroke-linecap="round"/>
<path d="M71.0664 43.8887L65.9727 47.3678L68.944 58.4375" stroke="black" stroke-width="0.307957" stroke-miterlimit="10" stroke-linecap="round"/>
<path d="M83.6654 51.7715L78.8962 52.8951L78.8047 64.6391" stroke="black" stroke-width="0.307957" stroke-miterlimit="10" stroke-linecap="round"/>
<path d="M48.0312 46.461C49.4295 36.4732 56.0215 27.5092 66.0758 23.5557C76.1302 19.6105 87.0668 21.6913 94.8823 28.0585L88.0406 30.7469L81.9065 28.2999L83.5628 32.5114L77.5368 34.8752L71.4027 32.4282L73.059 36.6397L48.0396 46.461H48.0312Z" fill="#0BB380"/>
<path d="M94.8823 28.0581C94.8823 28.0581 79.809 21.1332 65.8678 28.341C51.9265 35.5489 51.1857 41.0172 48.0312 46.4522" stroke="black" stroke-width="0.307957" stroke-miterlimit="10" stroke-linecap="round"/>
<path d="M60.7445 26.6094L57.5234 33.5509L70.9154 37.4794" stroke="black" stroke-width="0.307957" stroke-miterlimit="10" stroke-linecap="round"/>
<path d="M74.0256 21.8574L69.4062 26.818L82.5402 32.9106" stroke="black" stroke-width="0.307957" stroke-miterlimit="10" stroke-linecap="round"/>
<path d="M47.8666 46.461C46.4683 36.4732 39.8764 27.5092 29.8221 23.5557C19.7677 19.6105 8.83106 21.6913 1.01562 28.0585L7.85726 30.7469L13.9914 28.2999L12.3351 32.5114L18.3611 34.8752L24.4952 32.4282L22.8389 36.6397L47.8583 46.461H47.8666Z" fill="#0BB380"/>
<path d="M1.01562 28.0581C1.01562 28.0581 16.0889 21.1332 30.0301 28.341C43.9714 35.5489 44.7122 41.0172 47.8666 46.4522" stroke="black" stroke-width="0.307957" stroke-miterlimit="10" stroke-linecap="round"/>
<path d="M35.1592 26.6094L38.3802 33.5509L24.9883 37.4794" stroke="black" stroke-width="0.307957" stroke-miterlimit="10" stroke-linecap="round"/>
<path d="M21.874 21.8574L26.4933 26.818L13.3594 32.9106" stroke="black" stroke-width="0.307957" stroke-miterlimit="10" stroke-linecap="round"/>
<path d="M48.125 46.4614C58.0712 48.1344 66.8521 54.976 70.5143 65.1386C74.1848 75.3012 71.796 86.1712 65.2124 93.8118L62.7155 86.8953L65.3373 80.8277L61.0842 82.3592L58.8868 76.275L61.5086 70.2074L57.2555 71.7389L48.1333 46.4531L48.125 46.4614Z" fill="#0BB380"/>
<path d="M65.2208 93.803C65.2208 93.803 72.5618 78.9296 65.7368 64.7885C58.9118 50.6475 53.4685 49.7569 48.125 46.4609" stroke="black" stroke-width="0.307957" stroke-miterlimit="10" stroke-linecap="round"/>
<path d="M67.6174 59.7196L60.7674 56.2988L56.4727 69.5826" stroke="black" stroke-width="0.307957" stroke-miterlimit="10" stroke-linecap="round"/>
<path d="M71.9966 73.1295L67.1775 68.377L60.7188 81.3278" stroke="black" stroke-width="0.307957" stroke-miterlimit="10" stroke-linecap="round"/>
<path d="M46.2788 59.3293C45.1718 61.5266 43.9733 63.9903 42.7248 66.7203C40.3194 64.6645 37.0651 63.1996 34.4766 62.2674C35.8582 59.9868 37.2898 57.7646 38.763 55.6172C42.267 56.2248 44.6974 57.8228 46.2788 59.3376V59.3293Z" fill="#FE9435"/>
<path d="M37.9541 77.9408C36.6308 81.3033 35.3157 84.8906 34.0423 88.6943C30.8129 86.6302 26.4932 85.0321 23.0391 83.9584C24.7037 80.3462 26.4932 76.7006 28.3825 73.0801C32.3194 74.1538 35.7319 76.2928 37.9541 77.9408Z" fill="#FE9435"/>
<path d="M29.9585 102.376C28.8765 106.487 27.886 110.765 27.0204 115.185C21.1027 113.429 15.7342 112.364 11.7891 111.731C13.2706 107.561 15.0684 102.742 17.1658 97.5566C22.0432 98.3473 26.6209 100.47 29.9585 102.376Z" fill="#FE9435"/>
</svg>
